<svg width="168" height="50" viewBox="0 0 168 50" fill="none" xmlns="http://www.w3.org/2000/svg">
<path d="M31.7398 7.32807C30.8381 7.86068 29.6748 7.56167 29.1422 6.65997C28.6072 5.75827 28.9086 4.59494 29.8103 4.05999C31.4455 3.09288 33.5573 2.95272 35.3723 3.45964C36.2343 3.70258 36.6992 3.84741 37.4958 4.27023C39.9392 5.56906 41.6866 7.90039 42.5626 10.491C42.7938 11.1731 42.9831 11.937 43.1699 12.6215L44.0132 15.691C44.4758 17.3542 44.9733 18.7956 45.6718 20.4121L45.6765 20.4097C46.0222 21.197 46.3703 21.8674 46.8048 22.6079H46.8071C47.8793 24.2151 46.9566 26.5675 44.8659 26.8992C44.8145 26.9062 44.7608 26.9132 44.707 26.9179L44.7094 26.9225L44.0249 27.0183V27.0207L42.2402 27.35C41.2147 27.5673 40.2055 26.9132 39.9883 25.8877C39.771 24.8622 40.4275 23.8554 41.453 23.6381L42.8873 23.3601L42.2005 21.9398L42.2052 21.9375C41.2357 19.765 40.633 17.742 40.028 15.5158C39.8154 14.7402 39.2781 12.6191 38.9698 11.7081C38.3087 9.76453 37.0075 8.05924 35.0476 7.32106C34.3959 7.07578 33.4989 6.90759 32.8308 6.99169C32.4126 7.04541 32.0786 7.12718 31.7398 7.32807ZM44.707 26.9179C44.6627 26.9202 44.6159 26.9225 44.5692 26.9225V26.9249C44.6136 26.9249 44.6977 26.9225 44.7094 26.9225L44.707 26.9179Z" fill="#2D4B91"/>
<path fill-rule="evenodd" clip-rule="evenodd" d="M12.5682 5.06915C12.9023 5.06915 13.2316 5.15792 13.519 5.32378L44.3333 23.1148L44.6486 23.3438C45.0551 23.7082 45.2817 24.2198 45.2817 24.7594C45.2817 25.4438 44.9196 26.0676 44.3333 26.4063L13.519 44.1973C12.9303 44.5361 12.2108 44.5384 11.6174 44.195C11.0264 43.854 10.6667 43.2302 10.6667 42.5505V6.96833L10.7064 6.57822C10.8909 5.70455 11.6688 5.06915 12.5682 5.06915Z" fill="#AFD7FF"/>
<path d="M64.173 21.3768V5.83769H68.3638L73.2741 14.8243L78.2147 5.83769H82.3471V21.3768H78.5441V11.3226L74.5332 18.618H72.0173L67.976 11.3226V21.3768H64.173ZM93.275 21.6759C91.9972 21.6759 90.8479 21.4609 89.8317 21.0358C88.8132 20.613 87.9489 20.029 87.2411 19.2744C86.5333 18.5269 85.989 17.6696 85.6106 16.7001C85.2298 15.733 85.0406 14.7192 85.0406 13.6517C85.0406 12.5654 85.2298 11.5422 85.6106 10.5728C85.989 9.60568 86.5333 8.74603 87.2411 7.99851C87.9489 7.24397 88.8132 6.66231 89.8317 6.23715C90.8479 5.812 91.9972 5.59942 93.275 5.59942C94.5505 5.59942 95.6951 5.812 96.7019 6.23715C97.7111 6.66231 98.5731 7.24397 99.2926 7.99851C100.01 8.74603 100.554 9.60568 100.923 10.5728C101.292 11.5422 101.477 12.5654 101.477 13.6517C101.477 14.7192 101.292 15.733 100.923 16.7001C100.554 17.6696 100.014 18.5269 99.3066 19.2744C98.5988 20.029 97.7345 20.613 96.716 21.0358C95.6998 21.4609 94.5505 21.6759 93.275 21.6759ZM89.173 13.6517C89.173 14.551 89.3528 15.3476 89.7126 16.0461C90.07 16.7399 90.5606 17.2842 91.1773 17.6743C91.7963 18.0667 92.4948 18.2629 93.275 18.2629C94.0319 18.2629 94.721 18.062 95.34 17.6579C95.9591 17.2585 96.452 16.7118 96.8211 16.018C97.1902 15.3196 97.3747 14.5253 97.3747 13.6213C97.3747 12.7383 97.1902 11.951 96.8211 11.2409C96.452 10.5378 95.9591 9.98879 95.34 9.60101C94.721 9.20622 94.0319 9.01233 93.275 9.01233C92.4948 9.01233 91.7963 9.2109 91.1773 9.61503C90.5606 10.0145 90.07 10.5634 89.7126 11.2572C89.3528 11.9557 89.173 12.75 89.173 13.6517ZM104.173 21.3768V5.86806H108.183V16.0671L115.22 5.83769H118.871V21.3768H114.86V11.4114L107.915 21.3768H104.173ZM111.536 4.22117C110.001 4.22117 108.793 3.82639 107.915 3.03915C107.036 2.24958 106.597 1.23809 106.597 0H109.08C109.08 0.598019 109.281 1.09793 109.681 1.49738C110.08 1.89684 110.699 2.0954 111.536 2.0954C112.374 2.0954 112.979 1.90619 113.348 1.52775C113.717 1.14698 113.942 0.637731 114.021 0H116.507C116.507 1.23809 116.067 2.24958 115.189 3.03915C114.311 3.82639 113.094 4.22117 111.536 4.22117ZM73.5754 43.9217C72.356 43.9217 71.2838 43.6531 70.3564 43.1088C69.4267 42.5645 68.7048 41.831 68.1862 40.9036V50H64.173V28.0835H67.677V30.7746C68.275 29.8659 69.0342 29.1534 69.9523 28.6278C70.8703 28.1046 71.9169 27.8453 73.0942 27.8453C74.1524 27.8453 75.1265 28.0555 76.0142 28.469C76.9019 28.8825 77.6751 29.4571 78.3339 30.2C78.9926 30.9381 79.5066 31.7861 79.8756 32.7439C80.2447 33.704 80.4293 34.7365 80.4293 35.8391C80.4293 37.3412 80.1349 38.703 79.5463 39.9248C78.9576 41.1465 78.1493 42.1206 77.1215 42.8401C76.0936 43.562 74.9116 43.9217 73.5754 43.9217ZM72.2275 40.5088C72.8466 40.5088 73.4049 40.3803 73.9025 40.1257C74.4024 39.8711 74.8369 39.5253 75.206 39.0862C75.575 38.6423 75.8554 38.1447 76.0446 37.5841C76.2338 37.0305 76.3272 36.4465 76.3272 35.8391C76.3272 35.1944 76.2245 34.5963 76.0142 34.0474C75.804 33.4984 75.5003 33.0149 75.1008 32.5944C74.7014 32.1716 74.2388 31.8469 73.7086 31.6109C73.1806 31.3773 72.606 31.2582 71.9869 31.2582C71.6085 31.2582 71.2254 31.3236 70.8353 31.4474C70.4452 31.5735 70.0714 31.7511 69.7117 31.987C69.3519 32.2206 69.0389 32.4963 68.7679 32.8046C68.4993 33.113 68.3054 33.4587 68.1862 33.8278V37.465C68.4245 38.0349 68.7492 38.5489 69.158 39.0161C69.5668 39.4856 70.041 39.85 70.5807 40.114C71.1179 40.3803 71.6692 40.5088 72.2275 40.5088ZM90.4297 43.9217C89.173 43.9217 88.0353 43.7068 87.0168 43.284C85.9983 42.8588 85.1317 42.2795 84.4122 41.5366C83.6927 40.7985 83.1391 39.9505 82.7513 38.9927C82.3612 38.0349 82.1673 37.0258 82.1673 35.9582C82.1673 34.4772 82.5013 33.1246 83.1694 31.9006C83.8375 30.6788 84.7953 29.6954 86.0427 28.9572C87.2925 28.2144 88.7642 27.8453 90.4601 27.8453C92.1771 27.8453 93.6441 28.2144 94.8612 28.9572C96.0782 29.6954 97.0103 30.6788 97.6597 31.8912C98.3091 33.1083 98.6338 34.4165 98.6338 35.8227C98.6338 36.0587 98.6221 36.3016 98.6035 36.5469C98.5824 36.7969 98.5637 36.9954 98.5427 37.1566H86.4188C86.4982 37.9345 86.7318 38.6166 87.122 39.2006C87.5097 39.7916 88.0096 40.2355 88.6193 40.5345C89.2267 40.8382 89.8808 40.9877 90.5793 40.9877C91.3782 40.9877 92.1327 40.7938 92.8405 40.4037C93.5483 40.0159 94.0319 39.502 94.2912 38.8619L97.7345 39.8197C97.356 40.6186 96.8117 41.3264 96.1039 41.9454C95.3938 42.5645 94.5622 43.048 93.6044 43.3984C92.6443 43.7465 91.5884 43.9217 90.4297 43.9217ZM86.3277 34.6104H94.5318C94.4524 33.8325 94.2258 33.155 93.8567 32.5757C93.4876 32.001 93.004 31.5525 92.406 31.2325C91.8057 30.9078 91.1376 30.7489 90.3994 30.7489C89.6822 30.7489 89.0281 30.9078 88.4395 31.2325C87.8508 31.5525 87.3719 32.001 87.0028 32.5757C86.6337 33.155 86.4071 33.8325 86.3277 34.6104ZM108.394 43.9217C107.116 43.9217 105.969 43.7068 104.95 43.284C103.932 42.8588 103.065 42.2701 102.346 41.5063C101.626 40.7494 101.073 39.8851 100.685 38.918C100.295 37.9485 100.101 36.937 100.101 35.8695C100.101 34.4071 100.435 33.0686 101.103 31.8562C101.771 30.6438 102.724 29.672 103.962 28.9432C105.2 28.2097 106.667 27.8453 108.363 27.8453C110.059 27.8453 111.517 28.2144 112.734 28.9525C113.951 29.6907 114.86 30.6602 115.458 31.8562L111.536 33.0546C111.197 32.4752 110.748 32.0314 110.19 31.723C109.632 31.4124 109.013 31.2582 108.333 31.2582C107.574 31.2582 106.882 31.4474 106.252 31.8305C105.623 32.2113 105.13 32.7509 104.771 33.4423C104.411 34.1432 104.231 34.9514 104.231 35.8695C104.231 36.7712 104.415 37.5654 104.785 38.2639C105.154 38.9577 105.649 39.5066 106.268 39.9061C106.887 40.3102 107.574 40.5088 108.333 40.5088C108.812 40.5088 109.267 40.4294 109.695 40.2682C110.125 40.1093 110.51 39.8897 110.849 39.6118C111.188 39.3314 111.438 39.0114 111.596 38.6517L115.519 39.85C115.159 40.6279 114.636 41.3264 113.946 41.9454C113.257 42.5645 112.449 43.048 111.522 43.3984C110.594 43.7465 109.55 43.9217 108.394 43.9217ZM120.011 50C119.59 50 119.167 49.9486 118.738 49.8505C118.308 49.75 117.815 49.6005 117.254 49.402L118.034 46.2273C118.333 46.3675 118.618 46.4656 118.887 46.5264C119.156 46.5871 119.401 46.6175 119.621 46.6175C120.12 46.6175 120.564 46.4469 120.952 46.1012C121.342 45.7625 121.655 45.2392 121.896 44.5361L122.375 43.3073L116.028 28.0835H120.188L124.412 39.3922L128.124 28.0835H131.955L125.549 45.5896C125.208 46.5217 124.76 47.3159 124.201 47.9677C123.643 48.6218 123.003 49.1217 122.286 49.4744C121.566 49.8248 120.807 50 120.011 50ZM143.541 43.9217C142.324 43.9217 141.252 43.6531 140.322 43.1088C139.395 42.5645 138.671 41.831 138.152 40.9036V50H134.141V28.0835H137.643V30.7746C138.243 29.8659 139 29.1534 139.918 28.6278C140.836 28.1046 141.885 27.8453 143.062 27.8453C144.121 27.8453 145.092 28.0555 145.982 28.469C146.87 28.8825 147.643 29.4571 148.302 30.2C148.961 30.9381 149.475 31.7861 149.844 32.7439C150.213 33.704 150.398 34.7365 150.398 35.8391C150.398 37.3412 150.103 38.703 149.514 39.9248C148.926 41.1465 148.118 42.1206 147.09 42.8401C146.062 43.562 144.88 43.9217 143.541 43.9217ZM142.193 40.5088C142.812 40.5088 143.371 40.3803 143.871 40.1257C144.371 39.8711 144.803 39.5253 145.172 39.0862C145.543 38.6423 145.821 38.1447 146.01 37.5841C146.202 37.0305 146.295 36.4465 146.295 35.8391C146.295 35.1944 146.19 34.5963 145.982 34.0474C145.772 33.4984 145.469 33.0149 145.069 32.5944C144.67 32.1716 144.205 31.8469 143.677 31.6109C143.147 31.3773 142.574 31.2582 141.955 31.2582C141.574 31.2582 141.191 31.3236 140.801 31.4474C140.413 31.5735 140.04 31.7511 139.68 31.987C139.32 32.2206 139.005 32.4963 138.736 32.8046C138.467 33.113 138.271 33.4587 138.152 33.8278V37.465C138.393 38.0349 138.717 38.5489 139.126 39.0161C139.535 39.4856 140.009 39.85 140.547 40.114C141.086 40.3803 141.635 40.5088 142.193 40.5088ZM160.426 43.9217C159.151 43.9217 158.001 43.7068 156.985 43.284C155.967 42.8588 155.098 42.2701 154.38 41.5063C153.661 40.7494 153.107 39.8851 152.717 38.918C152.329 37.9485 152.133 36.937 152.133 35.8695C152.133 34.4071 152.47 33.0686 153.138 31.8562C153.806 30.6438 154.759 29.672 155.997 28.9432C157.233 28.2097 158.7 27.8453 160.398 27.8453C162.094 27.8453 163.552 28.2144 164.769 28.9525C165.986 29.6907 166.894 30.6602 167.492 31.8562L163.57 33.0546C163.232 32.4752 162.783 32.0314 162.222 31.723C161.664 31.4124 161.045 31.2582 160.368 31.2582C159.608 31.2582 158.915 31.4474 158.286 31.8305C157.658 32.2113 157.165 32.7509 156.805 33.4423C156.445 34.1432 156.266 34.9514 156.266 35.8695C156.266 36.7712 156.45 37.5654 156.819 38.2639C157.188 38.9577 157.684 39.5066 158.3 39.9061C158.919 40.3102 159.608 40.5088 160.368 40.5088C160.846 40.5088 161.3 40.4294 161.73 40.2682C162.159 40.1093 162.542 39.8897 162.881 39.6118C163.222 39.3314 163.47 39.0114 163.631 38.6517L167.553 39.85C167.193 40.6279 166.67 41.3264 165.981 41.9454C165.292 42.5645 164.484 43.048 163.556 43.3984C162.627 43.7465 161.585 43.9217 160.426 43.9217Z" fill="#2D4B91"/>
<path d="M30.7938 36.7899C31.8427 36.7899 32.6953 37.6402 32.6953 38.6914C32.6953 39.7402 31.8427 40.5929 30.7938 40.5929H17.9831C17.2005 40.5929 16.4156 40.2518 15.9111 39.6421L15.9087 39.6445C15.3761 39.0394 15.1308 38.1868 15.2687 37.3879H15.264L15.6471 35.3953H15.6424C15.89 34.2506 16.2591 33.0125 16.8268 31.9824L16.8198 31.9777C17.7075 30.3401 19.0787 29.1231 20.7583 28.3288L20.756 28.3242C21.7254 27.8499 22.7252 27.5159 23.8138 27.2169C24.1829 27.1141 24.5309 27.0253 24.8533 26.9482L25.122 26.6446C25.2878 26.439 25.4794 25.9928 25.5097 25.7172C24.2343 24.5772 23.3816 23.1569 22.842 21.5474L22.5804 20.6667C22.1108 18.6904 22.0057 16.6371 22.3748 14.6561C22.6551 13.1447 23.2531 11.8226 24.7879 11.318C25.8788 10.9606 26.5516 11.4535 28.2195 10.7246C28.8245 10.4607 28.904 10.0519 29.6982 9.70847H29.6959C30.0416 9.5543 30.4364 9.46786 30.7938 9.46786C31.8427 9.46786 32.6953 10.3205 32.6953 11.3694C32.6953 12.2547 32.0903 12.9976 31.2703 13.2102C31.1816 13.2569 30.712 13.7731 29.7356 14.2006C28.7264 14.6398 27.6495 14.9131 26.5493 14.9481L26.1895 14.9598C25.8882 15.9994 25.9022 17.5972 26.0517 18.6367L26.2783 19.7907H26.2759C26.5119 20.7251 26.9627 21.7436 27.6145 22.4701C27.7266 22.5963 27.8808 22.7434 28.0723 22.9116C28.633 23.3882 29.0091 24.0072 29.1913 24.7197L29.1866 24.722C29.3525 25.3714 29.3268 26.0792 29.1749 26.738C28.8876 27.9714 28.1377 29.1908 27.1379 29.9757C26.7455 30.2817 26.3437 30.4873 25.9302 30.5924V30.5901C24.7038 30.8868 23.5522 31.1858 22.4192 31.7394L22.4169 31.7324C21.417 32.223 20.6929 32.8116 20.1603 33.7904L20.1556 33.7858C19.7631 34.5239 19.5366 35.3439 19.3567 36.1802H19.3543C19.3286 36.3063 19.2913 36.4932 19.2329 36.7899H30.7938Z" fill="#2D4B91"/>
<path d="M30.3172 13.2102C29.4973 12.9999 28.8923 12.2547 28.8923 11.3694C28.8923 10.3205 29.7426 9.46786 30.7938 9.46786C31.532 9.46786 32.2398 9.7879 32.7654 10.3112L33.055 10.5494L33.0574 10.5471C33.5503 10.8905 34.5384 11.1404 35.1575 11.1615C36.0755 11.1918 36.5754 11.0914 37.5098 11.6497C38.1826 12.0538 38.6334 12.7336 38.9068 13.5022L38.9114 13.4998C39.1544 14.1609 39.3249 15.1677 39.3856 15.9667H39.3926C39.5982 18.326 39.1567 21.1666 37.9934 23.29C37.4654 24.2525 36.8581 25.0327 36.0335 25.7569C36.0802 26.1026 36.2344 26.4203 36.4633 26.6936V26.6913C36.5567 26.8011 36.6362 26.8828 36.7062 26.9412C37.0379 27.0207 37.393 27.1118 37.7738 27.2169C39.4207 27.6701 41.1096 28.2915 42.4622 29.31L42.4645 29.3076C42.9247 29.6557 43.4106 30.0995 43.7867 30.5504H43.789C44.5599 31.4731 45.0668 32.4449 45.4499 33.5919L45.4569 33.5872C45.84 34.6991 46.132 36.2666 46.3236 37.3879C46.5502 38.7171 45.7069 40.0673 44.4314 40.4597C44.1675 40.5415 43.8684 40.5929 43.6045 40.5929H30.7938C29.7426 40.5929 28.8923 39.7402 28.8923 38.6914C28.8923 37.6402 29.7426 36.7899 30.7938 36.7899H42.3547C42.2099 36.0493 42.1048 35.5237 41.8641 34.8206L41.8712 34.8183C41.6235 34.1035 41.3689 33.5732 40.8783 32.9868V32.9845C40.6751 32.7462 40.4392 32.5383 40.1775 32.3374C38.9395 31.4381 37.1571 30.9405 35.6924 30.5994V30.5971C34.8514 30.4055 34.1717 29.8472 33.583 29.1581C32.5785 27.9948 31.9571 26.2334 32.3776 24.7103H32.3799C32.7817 23.2387 33.7418 22.8906 34.2838 22.0847C34.9425 21.1035 35.2275 20.3093 35.4448 19.1787C35.634 18.1882 35.6924 17.2725 35.606 16.2914H35.613C35.5733 15.8639 35.5032 15.3242 35.3981 14.9575C34.0969 14.9271 33.0574 14.7262 31.852 14.2006C31.5039 14.0488 31.1816 13.8689 30.8896 13.6657L30.8919 13.661C30.691 13.5232 30.4994 13.3713 30.3172 13.2102Z" fill="url(#paint0_linear_17_561)"/>
<path d="M21.0175 23.8997C22.0407 24.1287 22.6808 25.1448 22.4519 26.1657C22.2229 27.1865 21.2091 27.8289 20.1859 27.5976L17.1958 26.9833C16.4109 26.8314 15.8807 26.7684 15.271 26.2077C14.9626 25.9227 14.7407 25.6447 14.5655 25.2359H14.5631C14.2127 24.416 14.2828 23.4652 14.7313 22.699L14.729 22.6967C16.5207 19.6739 17.2612 16.8567 18.1863 13.4531H18.184C18.3592 12.7686 18.7913 11.2105 19.0296 10.4864L19.0249 10.484C19.3169 9.63138 19.7094 8.79742 20.1929 8.01486L20.1906 8.01252C21.5829 5.74192 23.8581 3.95487 26.4885 3.38955C27.4206 3.18866 28.2709 3.10222 29.2099 3.22136V3.21902C30.121 3.33349 30.969 3.59979 31.7562 4.07634C32.6485 4.6183 32.9359 5.78163 32.3939 6.67399C31.852 7.56868 30.6886 7.85601 29.7939 7.31405C29.5043 7.13885 29.1212 7.0384 28.7497 6.99168C27.507 6.85386 26.1077 7.36778 25.1289 8.10129C24.4725 8.59185 23.8628 9.27864 23.4283 9.98879L23.426 9.98645C23.0826 10.5588 22.849 11.047 22.6177 11.7151H22.613L21.8679 14.3875H21.8655C21.0175 17.5575 20.242 20.3957 18.6769 23.4045L21.0175 23.8997Z" fill="url(#paint1_linear_17_561)"/>
<defs>
<linearGradient id="paint0_linear_17_561" x1="46.3604" y1="40.5929" x2="22.0338" y2="26.4851" gradientUnits="userSpaceOnUse">
<stop stop-color="#E12D37"/>
<stop offset="0.462049" stop-color="#E12D37"/>
<stop offset="1" stop-color="#FF8719"/>
</linearGradient>
<linearGradient id="paint1_linear_17_561" x1="32.668" y1="27.6448" x2="11.3325" y2="11.138" gradientUnits="userSpaceOnUse">
<stop stop-color="#E12D37"/>
<stop offset="0.462049" stop-color="#E12D37"/>
<stop offset="1" stop-color="#FF8719"/>
</linearGradient>
</defs>
</svg>
